<svg xmlns="http://www.w3.org/2000/svg" xml:space="preserve" width="24" height="24" id="hashtag">
  <path d="m11.21 13.425-.73-2.181 2.276-.762.73 2.181z"></path>
  <path d="M19.7.5H4.3C2.2.5.5 2.2.5 4.3v15.4c0 2.1 1.7 3.8 3.8 3.8h15.4c2.1 0 3.8-1.7 3.8-3.8V4.3c0-2.1-1.7-3.8-3.8-3.8zm.2 13.2c-.2.4-.6.7-1 .9l-1.1.4.4 1.1c.1.4.1.9-.1 1.3s-.6.7-1 .9c-.2.1-.4.1-.5.1-.8 0-1.4-.5-1.6-1.2l-.4-1.2-2.3.8.4 1.1c.1.4.1.9-.1 1.3s-.6.7-1 .9c-.2.1-.4.1-.5.1-.7 0-1.4-.5-1.6-1.2l-.4-1.1-1.1.3c-.3.1-.6.1-.8.1h-.1c-.1 0-.2 0-.2-.1h-.2l-.2-.2c-.1-.1-.2-.1-.2-.1l-.1-.1-.1-.1v-.1l-.1-.1s0-.1-.1-.1c0-.1-.1-.1-.1-.2 0 0-.1-.1-.1-.2-.3-.9.2-1.9 1.1-2.2l1.2-.3-.7-2.2-1.1.4c-.2.1-.4.1-.5.1H5s-.1 0-.1-.1l-.1-.1s-.1 0-.1-.1l-.2-.1-.1-.1-.1-.1s0-.1-.1-.1c0-.1-.1-.1-.1-.2 0 0-.1-.1-.1-.2-.3-.9.2-1.9 1.1-2.2l1.1-.4L5.8 8c-.3-.9.1-1.9 1-2.2.9-.3 1.9.2 2.2 1.1L9.4 8l2.3-.8-.4-1.1c-.1-.4-.1-.9.1-1.3s.6-.7 1-.9c.9-.3 1.9.2 2.2 1.1l.4 1.1 1-.3c.9-.3 1.9.2 2.2 1.1.1.4.1.9-.1 1.3-.2.3-.4.5-.7.7-.1.1-.2.1-.3.1l-1.1.5.7 2.2 1.1-.4c.9-.3 1.9.2 2.2 1.1.2.4.1.8-.1 1.3z"></path>
</svg>